<?xml version="1.0" encoding="UTF-8"?>
<svg width="131" height="113" viewBox="0 0 131 113" fill="none" xmlns="http://www.w3.org/2000/svg">
<path d="M94.3262 111.025C93.6914 111.99 92.6504 112.574 91.5078 112.574H38.4922C37.3496 112.574 36.2832 111.99 35.6738 111.025C35.0645 110.086 34.9883 108.918 35.4199 107.902C36.7148 105.008 39.6094 103.154 42.7832 103.154H49.1309V97.5684H80.8945V103.154H87.2422C90.416 103.154 93.2852 105.033 94.6055 107.902C95.0371 108.918 94.9355 110.111 94.3262 111.025ZM42.3262 30.9941C40.5742 37.5195 34.582 42.3438 27.5234 42.3438C19.0684 42.3184 12.1875 35.4629 12.1875 27.0078C12.1875 19.9238 17.0117 13.957 23.5371 12.2051C23.3594 12.8906 23.4609 12.4336 23.4355 27.0078C23.4355 29.2422 25.2637 31.0703 27.498 31.0703C41.9961 31.0449 41.6152 31.1211 42.3262 30.9941Z" fill="#77C198" fill-opacity="0.8"/>
<path d="M42.834 27.9785C42.834 28.7148 42.2246 29.3242 41.4883 29.3242H27.5234C26.7871 29.3242 26.1777 28.7148 26.1777 27.9785V14.0137C26.1777 13.252 26.7871 12.668 27.5234 12.668C35.9785 12.668 42.834 19.5234 42.834 27.9785ZM41.4883 51.5156H13.5332C12.7969 51.5156 12.1875 50.9063 12.1875 50.1699C12.1875 49.4336 12.7969 48.8242 13.5332 48.8242H41.4883C42.2246 48.8242 42.834 49.4336 42.834 50.1699C42.834 50.9063 42.2246 51.5156 41.4883 51.5156ZM41.4883 59.4883H13.5332C12.7969 59.4883 12.1875 58.8789 12.1875 58.1426C12.1875 57.4062 12.7969 56.7969 13.5332 56.7969H41.4883C42.2246 56.7969 42.834 57.4062 42.834 58.1426C42.834 58.9043 42.2246 59.4883 41.4883 59.4883ZM41.4883 67.4863H13.5332C12.7969 67.4863 12.1875 66.877 12.1875 66.1406C12.1875 65.4043 12.7969 64.7949 13.5332 64.7949H41.4883C42.2246 64.7949 42.834 65.4043 42.834 66.1406C42.834 66.877 42.2246 67.4863 41.4883 67.4863ZM67.6406 44.9395V64.7695C67.6406 66.2676 66.4219 67.4863 64.9238 67.4863H59.2871C57.7891 67.4863 56.5703 66.2676 56.5703 64.7695V44.9395C56.5703 43.4414 57.7637 42.2227 59.2871 42.2227H64.9238C66.4219 42.2227 67.6406 43.4414 67.6406 44.9395ZM84.373 30.9746V64.7695C84.373 66.2676 83.1543 67.4863 81.6562 67.4863H76.0195C74.5215 67.4863 73.3027 66.2676 73.3027 64.7695V30.9746C73.3027 29.4766 74.4961 28.2578 76.0195 28.2578H81.6562C83.1543 28.2578 84.373 29.4766 84.373 30.9746ZM101.08 44.9395V64.7695C101.08 66.2676 99.8613 67.4863 98.3633 67.4863H92.7012C91.2031 67.4863 89.9844 66.2676 89.9844 64.7695V44.9395C89.9844 43.4414 91.2031 42.2227 92.7012 42.2227H98.3633C99.8613 42.2227 101.08 43.4414 101.08 44.9395ZM117.812 36.6621V64.7695C117.812 66.2676 116.594 67.4863 115.096 67.4863H109.434C107.936 67.4863 106.717 66.2676 106.717 64.7695V36.6621C106.717 35.1641 107.936 33.9453 109.434 33.9453H115.096C116.594 33.9453 117.812 35.1641 117.812 36.6621Z" fill="#77C198" fill-opacity="0.8"/>
<path d="M95.545 35.2401C95.1641 35.2401 94.7833 35.0623 94.504 34.7576L78.711 15.9686L63.045 31.1014C62.5118 31.6092 61.6485 31.6092 61.1407 31.076C60.6329 30.5428 60.6329 29.6795 61.1661 29.1717L77.8985 13.0233C78.1778 12.7694 78.5333 12.617 78.9141 12.6424C79.295 12.6678 79.6504 12.8455 79.879 13.1248L95.7989 32.0662L111.516 20.9705C112.125 20.5389 112.963 20.6912 113.395 21.3006C113.826 21.91 113.674 22.7479 113.065 23.1795L96.3321 35.0115C96.1036 35.1639 95.8243 35.2401 95.545 35.2401Z" fill="#77C198" fill-opacity="0.8"/>
<path d="M65 83.2031C63.9844 83.2031 63.1465 84.041 63.1465 85.0566C63.1465 86.0723 63.9844 86.9102 65 86.9102C66.0156 86.9102 66.8535 86.0723 66.8535 85.0566C66.8535 84.041 66.0156 83.2031 65 83.2031Z" fill="#77C198" fill-opacity="0.8"/>
<path d="M123.221 0.455078H6.7793C3.02148 0.455078 0 3.47656 0 7.20898C0 9.36719 0 94.248 0 89.0684C0 92.8008 3.02148 95.8477 6.7793 95.8477H123.246C126.979 95.8477 130.025 92.8008 130.025 89.0684C130.025 78.7344 130.025 17.4922 130.025 7.20898C130 3.47656 126.953 0.455078 123.221 0.455078ZM65 89.627C62.4863 89.627 60.4297 87.5703 60.4297 85.0566C60.4297 82.543 62.4863 80.4863 65 80.4863C67.5137 80.4863 69.5703 82.543 69.5703 85.0566C69.5703 87.5703 67.5137 89.627 65 89.627ZM124.592 74.2402H5.4082V7.20898C5.4082 6.47266 6.01758 5.86328 6.75391 5.86328H123.221C123.957 5.86328 124.566 6.47266 124.566 7.20898V74.2402H124.592Z" fill="#77C198" fill-opacity="0.8"/>
</svg>