<?xml version="1.0" encoding="utf-8"?>
<!-- Generator: Adobe Illustrator 17.0.0, SVG Export Plug-In . SVG Version: 6.00 Build 0)  -->
<!DOCTYPE svg PUBLIC "-//W3C//DTD SVG 1.1//EN" "http://www.w3.org/Graphics/SVG/1.1/DTD/svg11.dtd">
<svg version="1.1" id="Layer_1" xmlns="http://www.w3.org/2000/svg" xmlns:xlink="http://www.w3.org/1999/xlink" x="0px" y="0px"
	 width="84.5px" height="107px" viewBox="0 0 84.5 107" enable-background="new 0 0 84.5 107" xml:space="preserve">
<path fill="#2EAA53" d="M42.058,4.092c-19.66,0-35.597,15.938-35.597,35.597c0,21.021,35.597,61.617,35.597,61.617
	S77.654,62.27,77.654,39.688C77.654,20.029,61.717,4.092,42.058,4.092z M42.058,47.856c-5.316,0-9.626-4.31-9.626-9.627
	c0-5.315,4.31-9.625,9.626-9.625c5.316,0,9.626,4.309,9.626,9.625C51.683,43.547,47.374,47.856,42.058,47.856z"/>
<rect x="18.519" y="20.64" fill-rule="evenodd" clip-rule="evenodd" fill="#2EAA53" width="45.746" height="32.059"/>
<path fill-rule="evenodd" clip-rule="evenodd" fill="#FFFFFF" d="M53.748,38.029c-0.632,0-1.052,0.419-1.052,1.108v15.345h-7.579
	v-6.22c0-0.55-0.419-1.107-0.94-1.107h-5.465c-0.634,0-1.164,0.558-1.164,1.107v6.22H30.08V39.688c0-0.689-0.521-1.108-1.052-1.108
	c-0.633,0-1.052,0.419-1.052,1.108V55.73c0,0.55,0.419,1.108,1.052,1.108h9.684c0.521,0,0.941-0.559,0.941-1.108v-6.358h3.37v6.358
	c0,0.55,0.521,1.108,1.154,1.108h9.571c0.522,0,1.053-0.559,1.053-1.108V39.138C54.8,38.448,54.27,38.029,53.748,38.029
	L53.748,38.029z M29.036,21.838L29.036,21.838c0.532,0,0.97,0.577,0.97,1.274v8.446l10.596-11.229
	c0.205-0.279,0.521-0.41,0.838-0.41c0.214,0,0.428,0.131,0.633,0.41c6.201,6.499,10.512,11.061,17.458,18.529l0,0
	c0.419,0.419,0.419,1.248,0,1.657c-0.205,0.14-0.419,0.279-0.736,0.279c-0.317,0-0.633-0.14-0.735-0.279L41.439,22.685
	L24.717,40.236c-0.419,0.559-1.052,0.559-1.471,0c-0.215-0.13-0.317-0.409-0.317-0.688c0-0.271,0.103-0.55,0.317-0.829l4.813-5.103
	V23.112C28.059,22.415,28.497,21.838,29.036,21.838L29.036,21.838z"/>
</svg>
