<svg width="48" height="49" viewBox="0 0 48 49" fill="none" xmlns="http://www.w3.org/2000/svg">
<path d="M41.5 24.5859H6.5C5.12164 24.5859 4 25.7113 4 27.0941C4 28.477 5.12164 29.6024 6.5 29.6024H41.5C42.8784 29.6024 44 28.477 44 27.0941C44 25.7113 42.8784 24.5859 41.5 24.5859ZM41.5 27.9302H6.5C6.04164 27.9302 5.66664 27.5556 5.66664 27.0941C5.66664 26.6326 6.04164 26.258 6.5 26.258H41.5C41.9584 26.258 42.3334 26.6326 42.3334 27.0941C42.3334 27.5556 41.9584 27.9302 41.5 27.9302Z" fill="#6C757D"/>
<path d="M41.7226 27.9577C41.271 27.8323 40.8176 28.0881 40.6926 28.533L38.396 36.5994C37.8876 38.3836 36.2394 39.6309 34.3894 39.6309H13.5977C11.7477 39.6309 10.101 38.3835 9.59101 36.5994L7.29429 28.5329C7.16929 28.0881 6.71429 27.8322 6.26429 27.9576C5.82093 28.0847 5.56593 28.5462 5.69265 28.991L7.98929 37.0574C8.70093 39.5572 11.0059 41.303 13.5977 41.303H34.3876C36.9793 41.303 39.286 39.5572 39.9977 37.0574L42.2943 28.991C42.421 28.5479 42.166 28.0848 41.7226 27.9577Z" fill="#6C757D"/>
<path d="M13.6071 36.2943C13.2371 36.2943 12.9088 36.0435 12.8055 35.6873L11.7239 31.8849C11.5989 31.4418 11.1405 31.1826 10.6939 31.3097C10.2522 31.4367 9.99549 31.8982 10.1222 32.343L11.2039 36.1455C11.5072 37.2174 12.4972 37.9648 13.6072 37.9648C14.0672 37.9648 14.4406 37.5919 14.4406 37.1304C14.4405 36.6689 14.0671 36.2943 13.6071 36.2943Z" fill="#6C757D"/>
<path d="M15.2086 39.7274C14.797 39.5251 14.2986 39.6873 14.0902 40.102L12.4236 43.4463C12.2186 43.8593 12.3852 44.3609 12.797 44.5683C12.9186 44.6285 13.0453 44.657 13.1703 44.657C13.4753 44.657 13.7687 44.4881 13.9153 44.1938L15.582 40.8495C15.787 40.4364 15.6202 39.9347 15.2086 39.7274Z" fill="#6C757D"/>
<path d="M35.582 43.4478L33.9153 40.1035C33.7087 39.6887 33.2087 39.5232 32.797 39.7289C32.3853 39.9362 32.2186 40.4378 32.4236 40.8509L34.0902 44.1952C34.2369 44.4878 34.5302 44.6567 34.8352 44.6567C34.9602 44.6567 35.0869 44.6283 35.2086 44.5698C35.6203 44.3624 35.787 43.8608 35.582 43.4478Z" fill="#6C757D"/>
<path d="M37.4763 4.65625C36.6263 4.65625 35.8263 4.98898 35.2247 5.59267L32.5797 8.24636C32.2547 8.57243 32.2547 9.10252 32.5797 9.42859C32.9047 9.75466 33.433 9.75466 33.758 9.42859L36.403 6.77655C36.688 6.48897 37.0696 6.33009 37.4846 6.33009C38.3212 6.33009 39.0012 7.01232 39.0012 7.85171V25.4092C39.0012 25.8707 39.3746 26.2453 39.8346 26.2453C40.2946 26.2453 40.668 25.8707 40.6696 25.4075V7.85006C40.6697 6.0893 39.243 4.65625 37.4763 4.65625Z" fill="#6C757D"/>
<path d="M34.5934 9.0826L32.9268 7.41048C32.7352 7.21821 32.4702 7.12956 32.2018 7.17636L28.0352 7.86196C27.7285 7.91048 27.4768 8.12783 27.3785 8.4238C27.2802 8.71977 27.3552 9.04584 27.5719 9.2682L32.5719 14.4351C32.7285 14.6007 32.9469 14.6893 33.1685 14.6893C33.2469 14.6893 33.3269 14.6776 33.4069 14.6558C33.7035 14.5689 33.9285 14.3231 33.9885 14.0188L34.8219 9.83843C34.8768 9.56417 34.7902 9.27988 34.5934 9.0826ZM32.6618 12.1292L29.8768 9.25151L32.0484 8.89534L33.0968 9.94714L32.6618 12.1292Z" fill="#6C757D"/>
<path d="M23.7645 14.8071C23.4395 14.481 22.9112 14.481 22.5862 14.8071L20.9195 16.4792C20.5945 16.8052 20.5945 17.3353 20.9195 17.6614C21.0829 17.8236 21.2962 17.9056 21.5095 17.9056C21.7229 17.9056 21.9362 17.8236 22.0979 17.6614L23.7645 15.9893C24.0895 15.6631 24.0895 15.1331 23.7645 14.8071Z" fill="#6C757D"/>
<path d="M27.0966 18.1352C26.7716 17.8091 26.2432 17.8091 25.9182 18.1352L24.2516 19.8073C23.9266 20.1334 23.9266 20.6635 24.2516 20.9895C24.4149 21.1517 24.6282 21.2337 24.8416 21.2337C25.0549 21.2337 25.2682 21.1518 25.4299 20.9895L27.0966 19.3174C27.4216 18.9913 27.4216 18.4612 27.0966 18.1352Z" fill="#6C757D"/>
<path d="M28.7645 13.1156C28.4395 12.7896 27.9112 12.7896 27.5862 13.1156L25.9195 14.7878C25.5945 15.1138 25.5945 15.6439 25.9195 15.97C26.0829 16.1322 26.2962 16.2141 26.5095 16.2141C26.7229 16.2141 26.9362 16.1322 27.0979 15.97L28.7645 14.2979C29.0895 13.9718 29.0895 13.4417 28.7645 13.1156Z" fill="#6C757D"/>
</svg>
