<svg width="48" height="49" viewBox="0 0 48 49" fill="none" xmlns="http://www.w3.org/2000/svg">
<path d="M42.3205 24.294V11.3612C42.3205 8.21546 39.7082 5.65625 36.4972 5.65625H11.3354C8.12433 5.65625 5.51204 8.21554 5.51204 11.3612V24.4608C3.95673 26.0538 3 28.2121 3 30.5853V40.3916C3 42.1917 4.49486 43.6562 6.33236 43.6562C8.16977 43.6562 9.66463 42.1917 9.66463 40.3916V39.3789H38.3355V40.3916C38.3355 42.1917 39.8303 43.6562 41.6677 43.6562C43.5051 43.6562 45 42.1918 45 40.3916V30.5853C45 28.1282 43.9743 25.9014 42.3205 24.294ZM11.3354 7.26354H36.4972C38.8036 7.26354 40.6799 9.10179 40.6799 11.3612V23.0291C40.1775 22.7261 39.6428 22.4697 39.082 22.2664V19.5939C39.082 17.2248 37.1146 15.2973 34.6963 15.2973H27.5655C26.0975 15.2973 24.7965 16.0083 24.0001 17.0965C23.2036 16.0083 21.9027 15.2973 20.4347 15.2973H13.3039C10.8856 15.2973 8.91814 17.2247 8.91814 19.5939V22.2664C8.29462 22.4924 7.70326 22.784 7.15275 23.1325V11.3612C7.15267 9.10179 9.02897 7.26354 11.3354 7.26354ZM12.0508 21.7184C11.5426 21.7184 11.0441 21.7604 10.5586 21.8396V19.5939C10.5586 18.111 11.7901 16.9046 13.3037 16.9046H20.4345C21.9482 16.9046 23.1796 18.111 23.1796 19.5939V21.7185L12.0508 21.7184ZM24.8203 19.5939C24.8203 18.111 26.0518 16.9045 27.5654 16.9045H34.6962C36.2099 16.9045 37.4413 18.111 37.4413 19.5939V21.8396C36.9557 21.7603 36.4573 21.7184 35.9492 21.7184H24.8203V19.5939ZM12.0508 23.3257H35.9492C40.0351 23.3257 43.3593 26.5823 43.3593 30.5853V32.9695H35.1319C34.6788 32.9695 34.3116 33.3293 34.3116 33.7731C34.3116 34.2169 34.6788 34.5768 35.1319 34.5768H43.3594V37.7716H4.64062V34.5768H36.1371C36.5902 34.5768 36.9574 34.2169 36.9574 33.7731C36.9574 33.3293 36.5902 32.9695 36.1371 32.9695H4.64062V30.5853C4.64062 26.5823 7.96478 23.3257 12.0508 23.3257ZM8.024 40.3916C8.024 41.3054 7.26513 42.049 6.33236 42.049C5.39958 42.049 4.64062 41.3054 4.64062 40.3916V39.3789H8.024V40.3916ZM41.6676 42.049C40.7349 42.049 39.976 41.3054 39.976 40.3916V39.3789H43.3594V40.3916C43.3594 41.3054 42.6005 42.049 41.6676 42.049Z" fill="#6C757D"/>
</svg>
