<svg width="45" height="44" viewBox="0 0 45 44" fill="none" xmlns="http://www.w3.org/2000/svg">
<path d="M39.4116 25.8921L39.4034 25.8786C39.0277 25.3067 38.4543 24.8934 37.7929 24.7179C37.1316 24.5425 36.4287 24.6171 35.819 24.9276L32.0597 26.8506C31.6097 26.2183 30.9474 25.7688 30.1935 25.5842C29.4396 25.3996 28.6445 25.4922 27.9532 25.8451L23.2196 28.2715C22.9724 28.3984 22.6983 28.4638 22.4205 28.4621C22.1427 28.4603 21.8694 28.3915 21.6239 28.2615L18.3973 26.5485C17.1763 25.8967 15.7985 25.5959 14.4168 25.6796C13.0352 25.7633 11.7038 26.2281 10.5703 27.0225L10.2054 25.2849C10.1895 25.2093 10.1588 25.1375 10.1151 25.0738C10.0714 25.01 10.0156 24.9556 9.95077 24.9135C9.88596 24.8714 9.81346 24.8425 9.73746 24.8285C9.66146 24.8146 9.58344 24.8157 9.50789 24.832L4.95904 25.8135C4.80759 25.8461 4.67522 25.9374 4.59082 26.0673C4.50641 26.1972 4.47681 26.3552 4.50849 26.5069L7.1572 39.1274C7.18421 39.2597 7.25603 39.3786 7.36056 39.4641C7.46508 39.5496 7.5959 39.5965 7.73094 39.5967C7.77233 39.5965 7.81361 39.5922 7.85414 39.5838L12.4053 38.6041C12.557 38.5716 12.6896 38.4803 12.7742 38.3502C12.8587 38.2202 12.8883 38.0619 12.8565 37.9101L12.6218 36.7802L14.177 36.4458C14.6301 36.3492 15.0965 36.3314 15.5556 36.393L22.8705 37.195C24.3891 37.3962 25.9289 37.0347 27.1994 36.1789L38.9165 28.3178C39.2996 28.0584 39.566 27.6593 39.6585 27.2059C39.7511 26.7525 39.6624 26.2809 39.4116 25.8921ZM8.18442 38.3096L5.77623 26.8377L9.17878 26.1044L11.5887 37.5769L8.18442 38.3096ZM38.2635 27.3452L26.547 35.2062C25.5077 35.9027 24.2494 36.1948 23.0096 36.0275L15.6952 35.2256C15.1066 35.1468 14.5088 35.1706 13.9283 35.296L12.3784 35.6292L10.832 28.2715L11.2326 27.9923C12.1895 27.3192 13.3143 26.9249 14.482 26.853C15.6496 26.7811 16.8143 27.0346 17.8465 27.5851L21.073 29.2981C21.4852 29.5174 21.9444 29.6336 22.4113 29.6368C22.8782 29.64 23.3389 29.53 23.754 29.3163L28.49 26.887C28.9633 26.6451 29.5113 26.5941 30.0211 26.7446C30.5309 26.895 30.9635 27.2353 31.2296 27.6954C31.3081 27.8301 31.3303 27.9902 31.2914 28.1411C31.2525 28.292 31.1557 28.4215 31.022 28.5015L24.4949 32.3733C23.3536 33.0547 21.9936 33.27 20.6976 32.9746L14.81 31.5667L14.5372 32.7083L20.4307 34.1163C22.0214 34.4807 23.6914 34.2178 25.0933 33.3824L31.6209 29.5105C31.8882 29.35 32.108 29.1213 32.2578 28.848C32.4077 28.5746 32.4823 28.2663 32.4739 27.9547L36.3511 25.9707C36.7022 25.7924 37.1066 25.7494 37.4874 25.8499C37.8681 25.9504 38.1986 26.1873 38.4161 26.5157L38.4225 26.5262C38.5069 26.6568 38.5376 26.815 38.5079 26.9677C38.4783 27.1204 38.3907 27.2557 38.2635 27.3452Z" fill="#076077"/>
<path d="M8.29673 27.5013L7.14844 27.7422L7.38909 28.8893L8.53739 28.6484L8.29673 27.5013Z" fill="#076077"/>
<path d="M15.6413 19.6523C15.4857 19.6523 15.3365 19.7142 15.2265 19.8242C15.1165 19.9342 15.0547 20.0834 15.0547 20.239V23.7589C15.0547 23.9145 15.1165 24.0637 15.2265 24.1737C15.3365 24.2837 15.4857 24.3455 15.6413 24.3455H17.9879C18.1435 24.3455 18.2927 24.2837 18.4027 24.1737C18.5128 24.0637 18.5746 23.9145 18.5746 23.7589V20.239C18.5746 20.0834 18.5128 19.9342 18.4027 19.8242C18.2927 19.7142 18.1435 19.6523 17.9879 19.6523H15.6413ZM17.4013 23.1722H16.228V20.8256H17.4013V23.1722Z" fill="#076077"/>
<path d="M20.9226 15.543C20.767 15.543 20.6178 15.6048 20.5078 15.7148C20.3977 15.8248 20.3359 15.974 20.3359 16.1296V23.756C20.3359 23.9116 20.3977 24.0608 20.5078 24.1708C20.6178 24.2809 20.767 24.3427 20.9226 24.3427H23.2692C23.4248 24.3427 23.574 24.2809 23.684 24.1708C23.794 24.0608 23.8558 23.9116 23.8558 23.756V16.1296C23.8558 15.974 23.794 15.8248 23.684 15.7148C23.574 15.6048 23.4248 15.543 23.2692 15.543H20.9226ZM22.6825 23.1694H21.5092V16.7163H22.6825V23.1694Z" fill="#076077"/>
<path d="M26.2038 17.3047C26.0482 17.3047 25.899 17.3665 25.789 17.4765C25.679 17.5865 25.6172 17.7357 25.6172 17.8913V23.7578C25.6172 23.9134 25.679 24.0626 25.789 24.1726C25.899 24.2826 26.0482 24.3444 26.2038 24.3444H28.5504C28.706 24.3444 28.8552 24.2826 28.9652 24.1726C29.0753 24.0626 29.1371 23.9134 29.1371 23.7578V17.8913C29.1371 17.7357 29.0753 17.5865 28.9652 17.4765C28.8552 17.3665 28.706 17.3047 28.5504 17.3047H26.2038ZM27.9638 23.1712H26.7905V18.478H27.9638V23.1712Z" fill="#076077"/>
<path d="M31.4812 14.375C31.3256 14.375 31.1764 14.4368 31.0664 14.5468C30.9563 14.6568 30.8945 14.8061 30.8945 14.9616V23.7613C30.8945 23.9169 30.9563 24.0661 31.0664 24.1762C31.1764 24.2862 31.3256 24.348 31.4812 24.348H33.8278C33.9834 24.348 34.1326 24.2862 34.2426 24.1762C34.3526 24.0661 34.4144 23.9169 34.4144 23.7613V14.9616C34.4144 14.8061 34.3526 14.6568 34.2426 14.5468C34.1326 14.4368 33.9834 14.375 33.8278 14.375H31.4812ZM33.2411 23.1747H32.0678V15.5483H33.2411V23.1747Z" fill="#076077"/>
<path d="M15.6434 10.5078L19.3352 14.1995C19.4452 14.3095 19.5944 14.3713 19.75 14.3713C19.9055 14.3713 20.0547 14.3095 20.1647 14.1995L26.7897 7.57454L31.6548 12.4396C31.7648 12.5496 31.914 12.6114 32.0695 12.6114C32.2251 12.6114 32.3743 12.5496 32.4843 12.4396L38.5226 6.40125V7.91831H39.6959V4.98508C39.6959 4.8295 39.6341 4.68028 39.5241 4.57026C39.4141 4.46024 39.2649 4.39844 39.1093 4.39844H36.176V5.57173H37.6931L32.0695 11.1953L27.2045 6.33026C27.0945 6.22028 26.9453 6.1585 26.7897 6.1585C26.6341 6.1585 26.485 6.22028 26.3749 6.33026L19.75 12.9553L16.0582 9.26349C15.9482 9.15352 15.799 9.09173 15.6434 9.09173C15.4879 9.09173 15.3387 9.15352 15.2287 9.26349L7.01562 17.4765L7.84514 18.3061L15.6434 10.5078Z" fill="#076077"/>
</svg>
