<svg width="37" height="36" viewBox="0 0 37 36" fill="none" xmlns="http://www.w3.org/2000/svg">
<path d="M9.12507 31.1985H2.52501C2.0874 31.1985 1.66772 31.0246 1.35828 30.7152C1.04884 30.4057 0.875 29.9861 0.875 29.5485C0.875 29.1108 1.04884 28.6912 1.35828 28.3817C1.66772 28.0723 2.0874 27.8984 2.52501 27.8984H9.12507V28.9984H2.52501C2.37914 28.9984 2.23925 29.0564 2.1361 29.1595C2.03296 29.2627 1.97501 29.4026 1.97501 29.5485C1.97501 29.6943 2.03296 29.8342 2.1361 29.9374C2.23925 30.0405 2.37914 30.0985 2.52501 30.0985H9.12507V31.1985Z" fill="#076077"/>
<path d="M4.72656 11.9492H5.82657V28.4494H4.72656V11.9492Z" fill="#076077"/>
<path d="M31.125 11.9492H32.225V22.3993H31.125V11.9492Z" fill="#076077"/>
<path d="M34.4268 14.1502C34.3339 14.1501 34.2425 14.1265 34.1612 14.0815L18.4767 5.42826L2.79222 14.0815C2.7085 14.1277 2.6142 14.1512 2.5186 14.1498C2.423 14.1485 2.32942 14.1222 2.24708 14.0736C2.16473 14.025 2.09648 13.9558 2.04904 13.8728C2.0016 13.7898 1.97662 13.6958 1.97656 13.6002V10.8502C1.97662 10.7519 2.00303 10.6554 2.05304 10.5708C2.10305 10.4861 2.17483 10.4164 2.26091 10.369L18.2111 1.56888C18.2923 1.52371 18.3837 1.5 18.4767 1.5C18.5697 1.5 18.6611 1.52371 18.7424 1.56888L34.6925 10.369C34.7786 10.4164 34.8504 10.4861 34.9004 10.5708C34.9504 10.6554 34.9768 10.7519 34.9768 10.8502V13.6002C34.9768 13.7461 34.9189 13.886 34.8158 13.9891C34.7126 14.0923 34.5727 14.1502 34.4268 14.1502ZM18.4767 4.25015C18.5696 4.25026 18.661 4.27391 18.7424 4.31891L33.8768 12.6685V11.1747L18.4767 2.67824L3.07657 11.1747V12.6685L18.2111 4.31891C18.2924 4.27391 18.3838 4.25026 18.4767 4.25015Z" fill="#076077"/>
<path d="M8.02579 28.4478H6.92578V14.1477C6.92578 14.0018 6.98373 13.8619 7.08687 13.7587C7.19002 13.6556 7.32992 13.5977 7.47579 13.5977H15.1759C15.3217 13.5977 15.4616 13.6556 15.5648 13.7587C15.6679 13.8619 15.7259 14.0018 15.7259 14.1477V22.3977H14.6258V14.6977H8.02579V28.4478Z" fill="#076077"/>
<path d="M28.3743 21.2977H18.4742C18.0366 21.2977 17.6169 21.1239 17.3075 20.8144C16.9981 20.505 16.8242 20.0853 16.8242 19.6477V15.2477C16.8242 14.8101 16.9981 14.3904 17.3075 14.0809C17.6169 13.7715 18.0366 13.5977 18.4742 13.5977H28.3743C28.8119 13.5977 29.2316 13.7715 29.5411 14.0809C29.8505 14.3904 30.0243 14.8101 30.0243 15.2477V19.6477C30.0243 20.0853 29.8505 20.505 29.5411 20.8144C29.2316 21.1239 28.8119 21.2977 28.3743 21.2977ZM18.4742 14.6977C18.3284 14.6977 18.1885 14.7556 18.0853 14.8588C17.9822 14.9619 17.9242 15.1018 17.9242 15.2477V19.6477C17.9242 19.7936 17.9822 19.9335 18.0853 20.0366C18.1885 20.1398 18.3284 20.1977 18.4742 20.1977H28.3743C28.5202 20.1977 28.6601 20.1398 28.7632 20.0366C28.8664 19.9335 28.9243 19.7936 28.9243 19.6477V15.2477C28.9243 15.1018 28.8664 14.9619 28.7632 14.8588C28.6601 14.7556 28.5202 14.6977 28.3743 14.6977H18.4742Z" fill="#076077"/>
<path d="M7.47501 8.42221H6.375V3.14766C6.375 3.00179 6.43295 2.86189 6.53609 2.75875C6.63924 2.6556 6.77913 2.59766 6.925 2.59766H11.325C11.4709 2.59766 11.6108 2.6556 11.714 2.75875C11.8171 2.86189 11.875 3.00179 11.875 3.14766V5.99119H10.775V3.69767H7.47501V8.42221Z" fill="#076077"/>
<path d="M11.8743 3.69847H6.37422C6.22835 3.69847 6.08846 3.64052 5.98531 3.53737C5.88217 3.43423 5.82422 3.29433 5.82422 3.14846V0.948442C5.82422 0.802572 5.88217 0.662676 5.98531 0.55953C6.08846 0.456384 6.22835 0.398438 6.37422 0.398438L11.8743 0.398438C12.0201 0.398438 12.16 0.456384 12.2632 0.55953C12.3663 0.662676 12.4243 0.802572 12.4243 0.948442V3.14846C12.4243 3.29433 12.3663 3.43423 12.2632 3.53737C12.16 3.64052 12.0201 3.69847 11.8743 3.69847ZM6.92423 2.59846H11.3243V1.49845H6.92423V2.59846Z" fill="#076077"/>
<path d="M33.3257 35.6001H14.0755C13.9871 35.6001 13.9 35.5787 13.8215 35.5378C13.7431 35.4969 13.6757 35.4377 13.6251 35.3653L9.77503 29.8652C9.71043 29.7728 9.67578 29.6628 9.67578 29.5501C9.67578 29.4373 9.71043 29.3273 9.77503 29.2349L13.6251 23.7349C13.6757 23.6624 13.7431 23.6032 13.8215 23.5623C13.9 23.5214 13.9871 23.5 14.0755 23.5H33.3257C34.0548 23.5009 34.7537 23.7909 35.2693 24.3064C35.7848 24.822 36.0748 25.5209 36.0757 26.25V32.8501C36.0748 33.5792 35.7848 34.2781 35.2693 34.7937C34.7537 35.3092 34.0548 35.5992 33.3257 35.6001ZM14.3621 34.5001H33.3257C33.7633 34.5001 34.183 34.3263 34.4924 34.0168C34.8019 33.7074 34.9757 33.2877 34.9757 32.8501V26.25C34.9757 25.8124 34.8019 25.3927 34.4924 25.0833C34.183 24.7739 33.7633 24.6 33.3257 24.6H14.3621L10.897 29.5501L14.3621 34.5001Z" fill="#076077"/>
<path d="M18.4766 30.0969H16.2766C16.1307 30.0969 15.9908 30.039 15.8877 29.9358C15.7845 29.8327 15.7266 29.6928 15.7266 29.5469V27.3469C15.7266 27.201 15.7845 27.0611 15.8877 26.958C15.9908 26.8548 16.1307 26.7969 16.2766 26.7969H18.4766C18.9142 26.7969 19.3339 26.9707 19.6433 27.2802C19.9528 27.5896 20.1266 28.0093 20.1266 28.4469C20.1266 28.8845 19.9528 29.3042 19.6433 29.6136C19.3339 29.9231 18.9142 30.0969 18.4766 30.0969ZM16.8266 28.9969H18.4766C18.6225 28.9969 18.7624 28.9389 18.8655 28.8358C18.9686 28.7327 19.0266 28.5928 19.0266 28.4469C19.0266 28.301 18.9686 28.1611 18.8655 28.058C18.7624 27.9548 18.6225 27.8969 18.4766 27.8969H16.8266V28.9969Z" fill="#076077"/>
<path d="M19.0656 32.5046L18.1042 30.1H16.8266V32.3H15.7266V29.55C15.7266 29.4041 15.7845 29.2642 15.8877 29.1611C15.9908 29.0579 16.1307 29 16.2766 29H18.4766C18.5865 28.9999 18.694 29.0328 18.785 29.0943C18.8761 29.1559 18.9466 29.2434 18.9875 29.3454L20.0876 32.0954L19.0656 32.5046Z" fill="#076077"/>
<path d="M23.9758 30.0969H21.2258C21.0799 30.0969 20.94 30.039 20.8369 29.9358C20.7337 29.8327 20.6758 29.6928 20.6758 29.5469V27.8969C20.6758 27.6051 20.7917 27.3254 20.998 27.1191C21.2043 26.9128 21.484 26.7969 21.7758 26.7969H24.5258V27.8969H21.7758V28.9969H23.9758V30.0969Z" fill="#076077"/>
<path d="M24.5258 32.2969H21.7758C21.484 32.2969 21.2043 32.181 20.998 31.9747C20.7917 31.7684 20.6758 31.4886 20.6758 31.1969V29.5469H21.7758V31.1969H24.5258V32.2969Z" fill="#076077"/>
<path d="M28.925 32.2969C28.8317 32.2969 28.74 32.2732 28.6584 32.228C28.5768 32.1828 28.5081 32.1175 28.4586 32.0384L26.725 29.2647V32.2969H25.625V27.3469C25.625 27.2275 25.6639 27.1113 25.7357 27.0159C25.8076 26.9205 25.9086 26.8511 26.0234 26.8182C26.1382 26.7853 26.2606 26.7906 26.3721 26.8334C26.4836 26.8762 26.5781 26.9541 26.6414 27.0554L28.375 29.8291V26.7969H29.475V31.7469C29.475 31.8928 29.4171 32.0327 29.3139 32.1358C29.2108 32.239 29.0709 32.2969 28.925 32.2969Z" fill="#076077"/>
<path d="M30.5742 26.7969H33.8742V27.8969H30.5742V26.7969Z" fill="#076077"/>
<path d="M31.6758 27.3477H32.7758V32.2977H31.6758V27.3477Z" fill="#076077"/>
<path d="M21.7734 14.1484H22.8734V20.7485H21.7734V14.1484Z" fill="#076077"/>
<path d="M23.9766 14.1484H25.0766V20.7485H23.9766V14.1484Z" fill="#076077"/>
<path d="M17.375 16.8984H22.325V17.9984H17.375V16.8984Z" fill="#076077"/>
<path d="M24.5234 16.8984H29.4735V17.9984H24.5234V16.8984Z" fill="#076077"/>
</svg>
