<svg width="48" height="49" viewBox="0 0 48 49" fill="none" xmlns="http://www.w3.org/2000/svg">
<path d="M43.0098 12.7935C43.549 12.7935 43.9902 12.3523 44 11.8131V5.64645C44 5.09743 43.5588 4.65625 43.0098 4.65625H36.8431C36.3039 4.65625 35.8627 5.09743 35.8627 5.64645V7.7935H12.1373V5.64645C12.1373 5.10723 11.6961 4.66605 11.1569 4.65625H4.9902C4.45098 4.65625 4.0098 5.09743 4 5.64645V11.8131C4 12.3523 4.44118 12.7935 4.9902 12.7935H7.13725V36.519H4.9902C4.45098 36.519 4.0098 36.9602 4 37.4994V43.6661C4 44.2053 4.44118 44.6464 4.9902 44.6562H11.1569C11.6961 44.6562 12.1373 44.2151 12.1373 43.6661V41.519H35.8627V43.6661C35.8627 44.2053 36.3039 44.6464 36.8431 44.6562H43.0098C43.549 44.6562 43.9902 44.2151 44 43.6661V37.4994C44 36.9602 43.5588 36.519 43.0098 36.519H40.8627V12.7935H43.0098ZM5.96078 10.8327V6.61703H10.1765V10.8327H5.96078ZM10.1765 42.6955H5.96078V38.4798H10.1765V42.6955ZM35.8627 37.4994V39.5582H12.1373V37.4994C12.1373 36.9602 11.6961 36.519 11.1569 36.519H9.09804V12.7935H11.1569C11.6961 12.7935 12.1373 12.3523 12.1373 11.8131V9.75429H35.8627V11.8131C35.8627 12.3523 36.3039 12.7935 36.8431 12.7935H38.902V36.519H36.8431C36.3039 36.519 35.8627 36.9602 35.8627 37.4994ZM42.0392 38.4798V42.6955H37.8235V38.4798H42.0392ZM37.8235 10.8327V6.61703H42.0392V10.8327H37.8235Z" fill="#6C757D"/>
</svg>
