<?xml version="1.0" encoding="UTF-8"?>
<svg width="25px" height="40px" viewBox="0 0 25 40" version="1.1" xmlns="http://www.w3.org/2000/svg" xmlns:xlink="http://www.w3.org/1999/xlink">
    <!-- Generator: Sketch 50.2 (55047) - http://www.bohemiancoding.com/sketch -->
    <title>short-white</title>
    <desc>Created with Sketch.</desc>
    <defs></defs>
    <g id="Page-1" stroke="none" stroke-width="1" fill="none" fill-rule="evenodd">
        <g id="artworks" transform="translate(-130.000000, -80.000000)" fill-rule="nonzero">
            <g id="short-white" transform="translate(130.000000, 80.000000)">
                <path d="M18.0068583,34.535483 C17.7748853,35.0945542 17.4127812,35.5699848 16.9262038,35.9676443 C16.4396265,36.3682386 15.8215035,36.6851923 15.0774927,36.9141033 C14.330653,37.1459491 13.4451954,37.261872 12.4239486,37.261872 L8.94152568,37.2648068 L8.93728227,27.4715237 L12.201877,27.4715237 C13.3334523,27.4715237 14.2938768,27.6021204 15.0817361,27.8735854 C15.8695954,28.1406482 16.5046921,28.5060254 16.9841971,28.9755865 C17.4665311,29.4436802 17.8173194,29.9968818 18.0337332,30.6322566 C18.2501469,31.2690988 18.3590611,31.9631688 18.3590611,32.7115318 C18.3590611,33.3733194 18.2430746,33.9793466 18.0068583,34.535483 L18.0068583,34.535483 Z M8.93020993,15.8249418 L11.2952023,15.8249418 C12.3419094,15.8249418 13.2429263,15.9393973 14.0024962,16.1697757 C14.7606516,16.4001541 15.3872614,16.7215099 15.8794967,17.1338432 C16.3731464,17.5461766 16.7394939,18.0421504 16.9728813,18.6232323 C17.2076832,19.2013793 17.3264986,19.8367542 17.3264986,20.5234872 C17.3264986,21.158862 17.2289002,21.7428786 17.0365324,22.2726022 C16.8455791,22.8037932 16.5683432,23.2601478 16.209068,23.6490031 C15.8469639,24.0393257 15.4042351,24.3401383 14.8808815,24.5602451 C14.3589424,24.777417 13.7662798,24.886003 13.1043083,24.8874704 L8.9358678,24.8889378 L8.93020993,15.8249418 L8.93020993,15.8249418 Z M23.5261168,28.5324382 C23.0649998,27.980704 22.5176003,27.5023386 21.8853326,27.0826684 C21.2544793,26.6644656 20.5585605,26.328436 19.8004051,26.0819164 C20.5345146,25.6446376 21.154052,25.2088263 21.657603,24.7686128 C22.1625685,24.3328014 22.5671067,23.8764467 22.8669741,23.4054183 C23.1668416,22.9285203 23.3846698,22.4281443 23.5162155,21.895486 C23.6463466,21.3657624 23.7142411,20.7832132 23.7128267,20.1434362 C23.7128267,19.1206735 23.466709,18.1903557 22.9730593,17.3554174 C22.4794096,16.5204791 21.7905631,15.8014637 20.9051055,15.201306 C20.0210623,14.604083 18.9630394,14.1447936 17.7282078,13.8161008 C16.4947908,13.4976797 15.1383149,13.3333333 13.6601947,13.3333333 L2.63157895,13.3406702 L2.64430917,40 L15.295321,39.9955979 C16.7493952,39.9955979 18.0761672,39.8019039 19.2728081,39.4115813 C20.4708635,39.0256608 21.4935246,38.4944698 22.3407916,37.8194758 C23.1894731,37.1444817 23.8443723,36.3550322 24.3069037,35.4511271 C24.7694351,34.5457547 25.001408,33.5684807 24.9999936,32.52224 C24.9999936,31.7577358 24.8698624,31.0416552 24.6110146,30.3666612 C24.3507522,29.6931345 23.9914771,29.0812377 23.5261168,28.5324382 L23.5261168,28.5324382 Z" id="Shape" fill="#FFFFFF"></path>
                <path d="M7.1505431,11.9920809 C7.47233599,11.9762428 7.75775228,11.9255608 7.9983974,11.8416187 C8.00259469,11.8400348 8.00539289,11.8368672 8.00819109,11.8368672 C8.15929384,11.7608442 8.29780469,11.6642316 8.42232454,11.550197 L8.43491644,11.5375265 L9.21561395,10.7598741 L9.21701305,10.7598741 L10.2901224,9.6876324 L11.5716975,8.41107877 C12.0795706,7.90109085 12.9134339,7.90109085 13.4255043,8.41107877 L15.531149,10.5096316 L16.556689,11.5296074 L16.5776755,11.5517808 C16.8798809,11.8321158 17.2674315,12 17.6899596,12 L19.7368421,12 L15.531149,7.81398111 L13.4255043,5.71701214 C12.9134339,5.2054404 12.0795706,5.2054404 11.5716975,5.71701214 L10.2901224,6.99198194 L5.26315789,12 L6.94067818,12 C7.01343136,12 7.08058813,11.9936647 7.1505431,11.9920809" id="Shape" fill="#E1E2E1"></path>
                <path d="M24.6869854,11.1021093 L21.3031155,7.87125073 L15.5929243,2.42507902 L13.4450018,0.373863123 C12.9226499,-0.124621041 12.072044,-0.124621041 11.5539737,0.373863123 L10.2466667,1.62316971 L7.97886023,3.78894408 L3.86284135,7.71489389 L0.316271683,11.1021093 C-0.1946627,11.5851126 -0.0719242725,11.981423 0.578874829,12 L5.11876944,12 L10.2466667,7.10649552 L11.5539737,5.85873702 C12.072044,5.35870477 12.9226499,5.35870477 13.4450018,5.85873702 L15.5929243,7.90840482 L19.8830605,12 L24.377285,12 C25.065191,12 25.2050557,11.5974973 24.6869854,11.1021093" id="Shape" fill="#FFFFFF"></path>
            </g>
        </g>
    </g>
</svg>