<?xml version="1.0" encoding="UTF-8"?>
<svg width="130px" height="40px" viewBox="0 0 130 40" version="1.1" xmlns="http://www.w3.org/2000/svg" xmlns:xlink="http://www.w3.org/1999/xlink">
    <!-- Generator: Sketch 50.2 (55047) - http://www.bohemiancoding.com/sketch -->
    <title>full-black</title>
    <desc>Created with Sketch.</desc>
    <defs></defs>
    <g id="Page-1" stroke="none" stroke-width="1" fill="none" fill-rule="evenodd">
        <g id="artworks" transform="translate(0.000000, -40.000000)" fill-rule="nonzero">
            <g id="full-black" transform="translate(0.000000, 40.000000)">
                <path d="M17.2329268,33.6270833 C16.9729268,34.2303333 16.5670732,34.7433333 16.0217073,35.1724167 C15.4763415,35.6046667 14.7835366,35.9466667 13.9496341,36.1936667 C13.112561,36.4438333 12.120122,36.5689167 10.9754878,36.5689167 L7.07231707,36.5720833 L7.06756098,26.0049167 L10.7265854,26.0049167 C11.994878,26.0049167 13.0713415,26.1458333 13.9543902,26.43875 C14.837439,26.7269167 15.5492683,27.1211667 16.0867073,27.6278333 C16.6273171,28.1329167 17.0204878,28.7298333 17.2630488,29.4154167 C17.5056098,30.1025833 17.6276829,30.8515 17.6276829,31.659 C17.6276829,32.3730833 17.4976829,33.027 17.2329268,33.6270833 Z M7.05963415,13.438 L9.71036585,13.438 C10.8835366,13.438 11.8934146,13.5615 12.7447561,13.8100833 C13.5945122,14.0586667 14.2968293,14.4054167 14.8485366,14.8503333 C15.4018293,15.29525 15.812439,15.8304167 16.0740244,16.4574167 C16.3371951,17.08125 16.4703659,17.7668333 16.4703659,18.5078333 C16.4703659,19.1934167 16.3609756,19.8235833 16.1453659,20.3951667 C15.9313415,20.9683333 15.6206098,21.46075 15.2179268,21.8803333 C14.8120732,22.3015 14.3158537,22.6260833 13.7292683,22.8635833 C13.1442683,23.0979167 12.48,23.2150833 11.7380488,23.2166667 L7.06597561,23.21825 L7.05963415,13.438 Z M23.4190244,27.1496667 C22.9021951,26.5543333 22.2886585,26.0381667 21.58,25.5853333 C20.8729268,25.1340833 20.0929268,24.7715 19.2431707,24.5055 C20.0659756,24.0336667 20.7603659,23.5634167 21.3247561,23.0884167 C21.8907317,22.6181667 22.3441463,22.12575 22.6802439,21.6175 C23.0163415,21.1029167 23.2604878,20.563 23.4079268,19.98825 C23.5537805,19.4166667 23.629878,18.7880833 23.6282927,18.09775 C23.6282927,16.9941667 23.352439,15.9903333 22.7991463,15.0894167 C22.2458537,14.1885 21.4737805,13.4126667 20.4813415,12.7650833 C19.4904878,12.1206667 18.3046341,11.6250833 16.9206098,11.2704167 C15.5381707,10.9268333 14.0178049,10.7495 12.3610976,10.7495 L8.8817842e-16,10.7574167 L0.0142682927,39.5234167 L14.1937805,39.5186667 C15.8235366,39.5186667 17.3106098,39.3096667 18.6518293,38.8885 C19.9946341,38.4720833 21.1408537,37.8989167 22.0904878,37.1705833 C23.0417073,36.44225 23.7757317,35.5904167 24.2941463,34.6150833 C24.812561,33.6381667 25.072561,32.5836667 25.0709756,31.45475 C25.0709756,30.6298333 24.925122,29.8571667 24.635,29.1288333 C24.3432927,28.4020833 23.9406098,27.7418333 23.4190244,27.1496667 Z" id="Shape" fill="#343434"></path>
                <path d="M39.2462312,35.8184167 C38.6850117,36.1493333 38.1444019,36.314 37.6180604,36.314 C37.3485482,36.314 37.0948897,36.2348333 36.8586702,36.07175 C36.6224507,35.9086667 36.4100117,35.6933333 36.2213531,35.41625 C36.0326946,35.14075 35.8836702,34.8161667 35.7758653,34.44725 C35.6680604,34.07675 35.6157434,33.6825 35.614158,33.2645 C35.614158,32.7388333 35.7774507,32.2369167 36.1087921,31.7603333 C36.4385482,31.2805833 36.866597,30.8293333 37.3929385,30.405 C37.9161092,29.9790833 38.50428,29.5911667 39.1511092,29.2333333 C39.7979385,28.8770833 40.4384263,28.562 41.0725726,28.29125 L41.0757434,34.5739167 C40.4130604,35.0758333 39.80428,35.4890833 39.2462312,35.8184167 M47.1572068,20.7941667 C46.8052556,20.069 46.2678165,19.4483333 45.5401336,18.9353333 C44.8108653,18.4255 43.8834263,18.0296667 42.7594019,17.7446667 C41.6306214,17.4644167 40.2909873,17.3235 38.7420848,17.3235 C37.4737921,17.3250833 36.2704995,17.4565 35.1306214,17.7209167 C33.9923287,17.9821667 32.9887921,18.3510833 32.1168409,18.8229167 C31.2496458,19.2931667 30.5552556,19.8489167 30.0447678,20.4901667 C29.5326946,21.1298333 29.2774507,21.8265 29.2774507,22.5801667 C29.2774507,22.97125 29.356719,23.3385833 29.5104995,23.68375 C29.6658653,24.0273333 29.8783043,24.32025 30.1478165,24.572 C30.4189141,24.819 30.7470848,25.0153333 31.1307434,25.15625 C31.5144019,25.2971667 31.9361092,25.36525 32.39428,25.36525 C33.0014751,25.36525 33.4961092,25.27975 33.8797678,25.1024167 C34.2650117,24.9314167 34.5694019,24.6970833 34.7881824,24.40575 C35.0133043,24.116 35.1702556,23.7835 35.25428,23.4066667 C35.3414751,23.02825 35.3858653,22.62925 35.3858653,22.216 C35.3858653,21.8645 35.4350117,21.5351667 35.5269629,21.2248333 C35.6220848,20.9129167 35.7758653,20.6421667 35.9914751,20.4078333 C36.2086702,20.1703333 36.4908653,19.9850833 36.8412312,19.8489167 C37.191597,19.7159167 37.629158,19.6478333 38.1570848,19.6478333 C38.6025726,19.6478333 39.0036702,19.7159167 39.3587921,19.8489167 C39.7170848,19.9819167 40.0214751,20.202 40.2703775,20.506 C40.5208653,20.8084167 40.7174507,21.2010833 40.8585482,21.684 C40.9996458,22.1716667 41.0709873,22.7559167 41.0709873,23.4430833 L41.0725726,25.6059167 L40.341719,25.7674167 C39.466597,26.04925 38.5772068,26.3421667 37.6751336,26.6398333 C36.7698897,26.9359167 35.8979385,27.2589167 35.0529385,27.6088333 C34.2126946,27.9619167 33.4231824,28.3498333 32.6875726,28.7789167 C31.9551336,29.21275 31.3130604,29.6956667 30.7676946,30.2355833 C30.2207434,30.7755 29.7895239,31.37875 29.4756214,32.0469167 C29.1585482,32.7119167 28.9984263,33.464 29.0000117,34.2984167 C29.0000117,35.0964167 29.149036,35.8326667 29.4454995,36.5214167 C29.7435482,37.207 30.171597,37.8023333 30.7328165,38.3074167 C31.2908653,38.8125 31.9725726,39.2051667 32.7747678,39.4885833 C33.5785482,39.7688333 34.479036,39.9113333 35.4762312,39.90975 C36.2181824,39.90975 36.8586702,39.8590833 37.3976946,39.74825 C37.9351336,39.64375 38.4170848,39.4901667 38.8419629,39.2954167 C39.2684263,39.0990833 39.6552556,38.8726667 40.0056214,38.6161667 C40.3559873,38.3596667 40.71428,38.0778333 41.0773287,37.7675 L41.0789141,39.506 L47.6914751,39.5028333 L47.6851336,23.23725 C47.6835482,22.3363333 47.5075726,21.5209167 47.1572068,20.7941667" id="Shape" fill="#343434"></path>
                <path d="M62.2462312,35.8184167 C61.686597,36.1493333 61.1459873,36.314 60.6196458,36.314 C60.3485482,36.314 60.0948897,36.2348333 59.8586702,36.07175 C59.624036,35.9086667 59.411597,35.6933333 59.2229385,35.41625 C59.03428,35.14075 58.8852556,34.8161667 58.7758653,34.44725 C58.6680604,34.07675 58.6157434,33.6825 58.614158,33.2645 C58.614158,32.7388333 58.779036,32.2369167 59.1087921,31.7603333 C59.4385482,31.2805833 59.8681824,30.8293333 60.3929385,30.405 C60.9176946,29.9790833 61.50428,29.5911667 62.1511092,29.2333333 C62.7979385,28.8770833 63.4400117,28.562 64.0725726,28.29125 L64.0757434,34.5739167 C63.4130604,35.0758333 62.80428,35.4890833 62.2462312,35.8184167 M70.1572068,20.7941667 C69.8084263,20.069 69.2678165,19.4483333 68.5401336,18.9353333 C67.8108653,18.4255 66.8834263,18.0296667 65.7594019,17.7446667 C64.6322068,17.4644167 63.2909873,17.3235 61.7436702,17.3235 C60.4753775,17.3250833 59.2720848,17.4565 58.1322068,17.7209167 C56.9923287,17.9821667 55.9887921,18.3510833 55.1184263,18.8229167 C54.2496458,19.2931667 53.5584263,19.8489167 53.0447678,20.4901667 C52.5326946,21.1298333 52.2774507,21.8265 52.2774507,22.5801667 C52.2774507,22.97125 52.356719,23.3385833 52.5104995,23.68375 C52.6658653,24.0273333 52.8798897,24.32025 53.1478165,24.572 C53.4189141,24.819 53.7454995,25.0153333 54.1323287,25.15625 C54.5144019,25.2971667 54.9361092,25.36525 55.39428,25.36525 C56.0014751,25.36525 56.4961092,25.27975 56.8813531,25.1024167 C57.2650117,24.9314167 57.5694019,24.6970833 57.7897678,24.40575 C58.0133043,24.116 58.1702556,23.7835 58.2558653,23.4066667 C58.3414751,23.02825 58.3858653,22.62925 58.3858653,22.216 C58.3858653,21.8645 58.4350117,21.5351667 58.5269629,21.2248333 C58.6220848,20.9129167 58.7758653,20.6421667 58.9930604,20.4078333 C59.2086702,20.1703333 59.4908653,19.9850833 59.8412312,19.8489167 C60.191597,19.7159167 60.629158,19.6478333 61.1570848,19.6478333 C61.6025726,19.6478333 62.0036702,19.7159167 62.3587921,19.8489167 C62.7170848,19.9819167 63.0214751,20.202 63.2703775,20.506 C63.5224507,20.8084167 63.7174507,21.2010833 63.8585482,21.684 C63.9996458,22.1716667 64.0709873,22.7559167 64.0709873,23.4430833 L64.0725726,25.6059167 L63.3433043,25.7674167 C62.466597,26.04925 61.5772068,26.3421667 60.6751336,26.6398333 C59.7714751,26.9359167 58.8979385,27.2589167 58.0545239,27.6088333 C57.2126946,27.9619167 56.4231824,28.3498333 55.689158,28.7789167 C54.9551336,29.21275 54.3130604,29.6956667 53.7676946,30.2355833 C53.2223287,30.7755 52.7895239,31.37875 52.4756214,32.0469167 C52.1585482,32.7119167 51.9984263,33.464 52.0000117,34.2984167 C52.0000117,35.0964167 52.149036,35.8326667 52.4454995,36.5214167 C52.7435482,37.207 53.171597,37.8023333 53.7328165,38.3074167 C54.2908653,38.8125 54.9709873,39.2051667 55.7763531,39.4885833 C56.5785482,39.7688333 57.479036,39.9113333 58.4762312,39.90975 C59.2181824,39.90975 59.8586702,39.8590833 60.3976946,39.74825 C60.9351336,39.64375 61.4202556,39.4901667 61.8419629,39.2954167 C62.2700117,39.0990833 62.6568409,38.8726667 63.0072068,38.6161667 C63.3575726,38.3596667 63.71428,38.0778333 64.0773287,37.7675 L64.0789141,39.506 L70.6914751,39.5028333 L70.6851336,23.23725 C70.6851336,22.3363333 70.509158,21.5209167 70.1572068,20.7941667" id="Shape" fill="#343434"></path>
                <polygon id="Shape" fill="#343434" points="101 18.97175 101.011098 39.4759167 107.58561 39.4711667 107.572927 17.1509167"></polygon>
                <path d="M89.3471951,24.686 C89.3471951,24.1381667 89.2853659,23.6473333 89.1664634,23.2166667 C89.0459756,22.7891667 88.8826829,22.42975 88.6813415,22.1415833 C88.48,21.8518333 88.250122,21.6333333 87.9869512,21.4860833 C87.7253659,21.3388333 87.4510976,21.2644167 87.1704878,21.2644167 C86.8867073,21.2644167 86.560122,21.3214167 86.1923171,21.4354167 C85.8213415,21.551 85.4360976,21.7109167 85.0318293,21.9199167 C84.627561,22.1273333 84.220122,22.3775 83.8031707,22.6735833 C83.3862195,22.9696667 82.9819512,23.299 82.5935366,23.66 L82.5935366,39.487 L76,39.487 L76,17.8824167 L82.5935366,17.8824167 L82.5935366,19.5734167 C83.6002439,18.8355833 84.6846341,18.2925 85.8371951,17.9536667 C86.9960976,17.6100833 88.1502439,17.4359167 89.307561,17.4359167 C90.1921951,17.4359167 91.0371951,17.6100833 91.8362195,17.9536667 C92.6368293,18.2925 93.3359756,18.7675 93.9352439,19.36125 C94.5313415,19.95975 95.0085366,20.658 95.3668293,21.456 C95.7203659,22.2524167 95.8995122,23.109 95.8995122,24.0225833 L95.8995122,39.487 L89.3471951,39.487 L89.3471951,24.686 Z" id="Shape" fill="#343434"></path>
                <path d="M121.24622,35.7788333 C120.686585,36.1081667 120.142805,36.276 119.618049,36.276 C119.348537,36.276 119.094878,36.1920833 118.858659,36.0353333 C118.624024,35.8706667 118.411585,35.6505833 118.222927,35.3798333 C118.031098,35.0995833 117.883659,34.7765833 117.775854,34.4060833 C117.668049,34.0371667 117.614146,33.6413333 117.614146,33.2265 C117.614146,32.7008333 117.777439,32.1989167 118.10878,31.7175833 C118.438537,31.241 118.868171,30.78975 119.392927,30.367 C119.919268,29.9426667 120.505854,29.55 121.154268,29.1921667 C121.797927,28.8359167 122.441585,28.5208333 123.074146,28.2548333 L123.075732,34.5375 C122.414634,35.03625 121.805854,35.4479167 121.24622,35.7788333 M129.157195,20.7561667 C128.805244,20.0278333 128.267805,19.4071667 127.540122,18.89575 C126.810854,18.3859167 125.883415,17.9900833 124.757805,17.7050833 C123.63061,17.42325 122.292561,17.2823333 120.740488,17.2839167 C119.47378,17.2839167 118.272073,17.4169167 117.13061,17.67975 C115.992317,17.9425833 114.987195,18.3115 114.116829,18.78175 C113.25122,19.2535833 112.556829,19.8109167 112.046341,20.4505833 C111.531098,21.0886667 111.275854,21.7885 111.275854,22.5421667 C111.275854,22.9316667 111.356707,23.299 111.512073,23.641 C111.665854,23.9861667 111.876707,24.28225 112.147805,24.5308333 C112.418902,24.7794167 112.745488,24.9741667 113.130732,25.1150833 C113.51439,25.2575833 113.936098,25.32725 114.394268,25.32725 C115.001463,25.32725 115.496098,25.2401667 115.879756,25.0628333 C116.266585,24.8886667 116.567805,24.6575 116.788171,24.3661667 C117.011707,24.078 117.168659,23.7423333 117.255854,23.3686667 C117.344634,22.9918333 117.385854,22.5928333 117.385854,22.17325 C117.385854,21.8233333 117.430244,21.494 117.530122,21.18525 C117.622073,20.8765 117.775854,20.6025833 117.993049,20.3666667 C118.207073,20.1323333 118.490854,19.9455 118.84122,19.8109167 C119.193171,19.6779167 119.630732,19.6098333 120.155488,19.6098333 C120.600976,19.6098333 121.002073,19.6763333 121.360366,19.8109167 C121.717073,19.9423333 122.019878,20.164 122.270366,20.4648333 C122.520854,20.7688333 122.714268,21.1630833 122.860122,21.6475833 C122.999634,22.1320833 123.06939,22.7163333 123.072561,23.4050833 L123.072561,25.5663333 L122.343293,25.7278333 C121.466585,26.01125 120.57878,26.3025833 119.673537,26.5970833 C118.769878,26.89475 117.897927,27.2161667 117.054512,27.56925 C116.211098,27.9191667 115.423171,28.3118333 114.687561,28.7425 C113.955122,29.17475 113.313049,29.6560833 112.769268,30.1975833 C112.223902,30.7359167 111.789512,31.3391667 111.474024,32.0089167 C111.158537,32.6755 111,33.4244167 111,34.2588333 C111,35.0520833 111.149024,35.7930833 111.445488,36.4818333 C111.743537,37.1674167 112.173171,37.76275 112.732805,38.2694167 C113.290854,38.7713333 113.970976,39.1671667 114.774756,39.449 C115.578537,39.7324167 116.479024,39.87175 117.477805,39.87175 C118.216585,39.87175 118.855488,39.81475 119.397683,39.71025 C119.935122,39.6025833 120.418659,39.4505833 120.841951,39.25425 C121.268415,39.0595 121.656829,38.8330833 122.004024,38.575 C122.357561,38.3216667 122.714268,38.0398333 123.077317,37.7279167 L123.077317,39.468 L129.693049,39.4616667 L129.683537,23.2008333 C129.683537,22.2983333 129.509146,21.4813333 129.157195,20.7561667" id="Shape" fill="#343434"></path>
                <path d="M106.726463,8.59458333 C106.403049,8.30166667 106.025732,8.07525 105.592927,7.90741667 C105.163293,7.738 104.703537,7.65566667 104.216829,7.65566667 C103.731707,7.65566667 103.275122,7.738 102.843902,7.90583333 C102.412683,8.07841667 102.03378,8.30641667 101.710366,8.59616667 C101.386951,8.8875 101.134878,9.22475 100.952561,9.61583333 C100.771829,10.0069167 100.679878,10.4249167 100.679878,10.8698333 C100.679878,11.31475 100.771829,11.7311667 100.952561,12.12225 C101.134878,12.5133333 101.388537,12.8505833 101.713537,13.12925 C102.036951,13.41425 102.412683,13.6390833 102.847073,13.8069167 C103.276707,13.97475 103.736463,14.06025 104.221585,14.06025 C104.708293,14.0586667 105.164878,13.9731667 105.597683,13.8069167 C106.030488,13.6375 106.40622,13.4095 106.729634,13.1276667 C107.053049,12.8458333 107.308293,12.51175 107.496951,12.1190833 C107.68561,11.728 107.780732,11.3131667 107.779146,10.8666667 C107.779146,10.4201667 107.68561,10.0053333 107.496951,9.61266667 C107.306707,9.22475 107.049878,8.88433333 106.726463,8.59458333" id="Shape" fill="#343434"></path>
                <path d="M58.4365854,12.8478333 C58.8012195,12.832 59.1246341,12.7813333 59.3973171,12.6974167 C59.4020732,12.6958333 59.4052439,12.6926667 59.4084146,12.6926667 C59.5796341,12.6166667 59.7365854,12.5200833 59.8776829,12.4060833 L59.8919512,12.3934167 L60.7765854,11.616 L60.7781707,11.616 L61.9941463,10.5440833 L63.4463415,9.26791667 C64.0218293,8.75808333 64.9667073,8.75808333 65.5469512,9.26791667 L67.9329268,11.3658333 L69.095,12.3855 L69.1187805,12.4076667 C69.4612195,12.6879167 69.9003659,12.85575 70.3791463,12.85575 L72.6985366,12.85575 L67.9329268,8.671 L65.5469512,6.57466667 C64.9667073,6.06325 64.0218293,6.06325 63.4463415,6.57466667 L61.9941463,7.84925 L56.2979268,12.85575 L58.1987805,12.85575 C58.2812195,12.85575 58.3573171,12.8494167 58.4365854,12.8478333" id="Shape" fill="#585858"></path>
                <path d="M78.0364634,11.9374167 L74.277561,8.633 L67.9345122,3.06283333 L65.5485366,0.964916667 C64.9682927,0.455083333 64.0234146,0.455083333 63.4479268,0.964916667 L61.9957317,2.24266667 L59.4765854,4.45775 L54.9043902,8.47308333 L50.9647561,11.9374167 C50.3971951,12.4314167 50.5335366,12.83675 51.2564634,12.85575 L56.2995122,12.85575 L61.9957317,7.85083333 L63.4479268,6.57466667 C64.0234146,6.06325 64.9682927,6.06325 65.5485366,6.57466667 L67.9345122,8.671 L72.700122,12.85575 L77.692439,12.85575 C78.4565854,12.85575 78.6119512,12.4440833 78.0364634,11.9374167" id="Shape" fill="#343434"></path>
            </g>
        </g>
    </g>
</svg>