<svg width="32" height="32" viewBox="0 0 32 32" fill="none" xmlns="http://www.w3.org/2000/svg">
<path d="M16.0017 8.64C18.2551 8.64 19.7751 9.61333 20.6417 10.4267L24.0284 7.12C21.9484 5.18667 19.2417 4 16.0017 4C11.3084 4 7.25507 6.69333 5.28174 10.6133L9.16173 13.6267C10.1351 10.7333 12.8284 8.64 16.0017 8.64Z" fill="#EA4335"/>
<path d="M27.52 16.2666C27.52 15.28 27.44 14.56 27.2667 13.8133H16V18.2666H22.6133C22.48 19.3733 21.76 21.04 20.16 22.1599L23.9467 25.0933C26.2133 22.9999 27.52 19.92 27.52 16.2666Z" fill="#4285F4"/>
<path d="M9.17284 18.3736C8.91951 17.6269 8.77284 16.8269 8.77284 16.0003C8.77284 15.1736 8.91951 14.3736 9.15951 13.6269L5.27951 10.6136C4.46618 12.2403 3.99951 14.0669 3.99951 16.0003C3.99951 17.9336 4.46618 19.7603 5.27951 21.3869L9.17284 18.3736Z" fill="#FBBC05"/>
<path d="M16.0006 27.9999C19.2406 27.9999 21.9606 26.9333 23.9473 25.0933L20.1606 22.1599C19.1473 22.8666 17.7873 23.3599 16.0006 23.3599C12.8273 23.3599 10.1339 21.2666 9.17394 18.3733L5.29395 21.3866C7.26728 25.3066 11.3073 27.9999 16.0006 27.9999Z" fill="#34A853"/>
</svg>
