<svg width="48" height="49" viewBox="0 0 48 49" fill="none" xmlns="http://www.w3.org/2000/svg">
<path d="M8.59904 45.6562H39.4018C40.5617 45.6562 41.502 44.7161 41.502 43.5564V19.9358L41.7505 20.1002C42.2072 20.4155 42.7734 20.5294 43.3165 20.4152C43.8753 20.2996 44.3627 19.9611 44.6662 19.478L44.6704 19.471C45.2855 18.4801 45.0162 17.1812 44.0579 16.5165L25.1527 4.00907C24.4583 3.53864 23.5474 3.53864 22.853 4.00907L3.93728 16.5228C2.98089 17.1898 2.71498 18.4891 3.33244 19.478C3.6326 19.9608 4.11725 20.2997 4.67375 20.416C4.81363 20.4441 4.95602 20.4582 5.09868 20.458C5.50669 20.4585 5.9054 20.3366 6.24329 20.108L6.49879 19.9365V43.5564C6.49879 44.7161 7.43909 45.6562 8.59904 45.6562ZM40.1018 43.5564C40.1018 43.943 39.7884 44.2564 39.4017 44.2564H8.59904C8.21239 44.2564 7.89898 43.943 7.89898 43.5564V19.0111L24.0004 8.37185L40.1018 19.0111V43.5564ZM5.46341 18.9426C5.31686 19.0439 5.13502 19.0803 4.96073 19.0434C4.77681 19.005 4.61681 18.8926 4.51832 18.7326C4.29667 18.3869 4.38294 17.9284 4.71501 17.6868L23.6314 5.17243C23.7402 5.09851 23.8688 5.05906 24.0004 5.05906C24.1346 5.05961 24.2655 5.10032 24.3764 5.17597L43.2802 17.6834C43.6149 17.9227 43.7046 18.3816 43.4845 18.7292C43.3837 18.8911 43.2211 19.0049 43.0344 19.0442C42.859 19.079 42.6768 19.0406 42.5304 18.9378L24.3868 6.94886C24.1529 6.7961 23.8507 6.7961 23.6168 6.94886L5.46341 18.9426Z" fill="#6C757D"/>
<path d="M18.1541 16.8685C17.341 16.0595 16.0269 16.0595 15.2138 16.8685L11.3103 20.7714C10.5007 21.5842 10.5007 22.8984 11.3103 23.7112L17.6452 30.0507L13.7486 33.9473C13.6641 34.0311 13.6026 34.1352 13.5701 34.2497L11.9382 39.9621C11.8222 40.3674 11.9033 40.8037 12.1571 41.1403C12.4109 41.4769 12.8082 41.6748 13.2298 41.6748C13.3546 41.6745 13.4787 41.6571 13.5988 41.623L19.312 39.9901C19.4264 39.9576 19.5306 39.896 19.6145 39.8116L23.5124 35.9171L29.8487 42.253C30.6619 43.0617 31.9757 43.0617 32.7889 42.253L36.6924 38.3501C37.502 37.5373 37.502 36.2231 36.6924 35.4103L30.3597 29.0708L35.72 23.7113C36.2404 23.1918 36.5328 22.4867 36.5328 21.7515C36.5328 21.0162 36.2404 20.3112 35.72 19.7916L33.7683 17.8402C33.2496 17.3187 32.5437 17.0265 31.8081 17.0289C31.0727 17.0265 30.3668 17.3183 29.848 17.8395L24.4925 23.2046L18.1541 16.8685ZM15.7095 37.8517C15.2977 37.4439 14.805 37.1268 14.2632 36.9207L14.6987 35.3955L17.1265 36.4357L18.1668 38.8631L16.6413 39.2985C16.4351 38.7565 16.1176 38.2636 15.7095 37.8517ZM18.4894 36.0626L28.8818 25.6718L30.3316 27.1214L19.3589 38.0917L18.4894 36.0626ZM27.4327 22.2427L28.8826 20.7931L32.7721 24.6821L31.3216 26.131L27.4327 22.2427ZM27.8927 24.6821L17.4995 35.0728L15.4693 34.2035L26.4421 23.2324L27.8927 24.6821ZM12.3002 22.7221C12.0348 22.4565 12.0348 22.0261 12.3002 21.7604L16.2037 17.8575C16.4694 17.5922 16.8999 17.5922 17.1656 17.8575L18.6224 19.3141L17.1656 20.7708C16.9836 20.9465 16.9106 21.2067 16.9746 21.4515C17.0387 21.6962 17.2299 21.8873 17.4746 21.9514C17.7194 22.0155 17.9797 21.9425 18.1555 21.7605L19.6123 20.3039L21.0622 21.7549L20.0933 22.7236C19.9113 22.8993 19.8383 23.1596 19.9023 23.4043C19.9664 23.6491 20.1576 23.8402 20.4023 23.9042C20.6471 23.9683 20.9074 23.8953 21.0832 23.7133L22.052 22.7446L23.5019 24.1942L18.6364 29.0589L12.3002 22.7221ZM13.3125 40.249L13.8725 38.2752C14.5086 38.5434 15.0148 39.0496 15.2832 39.6856L13.3125 40.249ZM30.8196 31.5122L29.8507 32.4809C29.6688 32.6566 29.5958 32.9169 29.6598 33.1617C29.7239 33.4064 29.915 33.5975 30.1598 33.6616C30.4045 33.7256 30.6648 33.6526 30.8406 33.4707L31.8095 32.5005L33.2594 33.9502L31.8025 35.4068C31.6205 35.5825 31.5476 35.8427 31.6116 36.0875C31.6757 36.3322 31.8668 36.5233 32.1115 36.5874C32.3563 36.6515 32.6166 36.5785 32.7924 36.3965L34.2492 34.9399L35.7053 36.3964C35.9707 36.6621 35.9707 37.0925 35.7053 37.3582L31.8018 41.2611C31.5361 41.5265 31.1056 41.5265 30.8399 41.2611L24.5037 34.9259L29.3692 30.0612L30.8196 31.5122ZM31.8088 18.4315C32.1724 18.4303 32.5214 18.5747 32.7777 18.8326L34.7294 20.784C35.2638 21.3191 35.2638 22.1857 34.7294 22.7208L33.7613 23.6923L29.8717 19.8034L30.8406 18.8346C31.0965 18.5763 31.4452 18.4311 31.8088 18.4315Z" fill="#6C757D"/>
</svg>
